<?xml version="1.0" encoding="UTF-8" standalone="no"?>
<!-- Created with Inkscape (http://www.inkscape.org/) -->

<svg
   xmlns:svg="http://www.w3.org/2000/svg"
   xmlns="http://www.w3.org/2000/svg"
   xmlns:dc="http://purl.org/dc/elements/1.1/"
   xmlns:cc="http://web.resource.org/cc/"
   xmlns:rdf="http://www.w3.org/1999/02/22-rdf-syntax-ns#"
   version="1.0"
   id="svg2">
  <defs id="defs640" />
  <metadata 
    id="metadata1880"><rdf:RDF><cc:Work
        rdf:about=""><dc:title>Health Care Regions of Sweden</dc:title><dc:date>2010-05-19</dc:date><dc:creator><cc:Agent><dc:title>Lokal_Profil</dc:title></cc:Agent></dc:creator><cc:license
        rdf:resource="http://creativecommons.org/licenses/by-sa/2.5/" /><dc:rights><cc:Agent><dc:title>cc-by-sa-2.5</dc:title></cc:Agent></dc:rights><dc:format>image/svg+xml</dc:format><dc:type
        rdf:resource="http://purl.org/dc/dcmitype/StillImage" /></cc:Work><cc:License
        rdf:about="http://creativecommons.org/licenses/by-sa/2.5/"><cc:permits
        rdf:resource="http://web.resource.org/cc/Reproduction" /><cc:permits
        rdf:resource="http://web.resource.org/cc/Distribution" /><cc:requires
        rdf:resource="http://web.resource.org/cc/Notice" /><cc:requires
        rdf:resource="http://web.resource.org/cc/Attribution" /><cc:permits
        rdf:resource="http://web.resource.org/cc/DerivativeWorks" /><cc:requires
        rdf:resource="http://web.resource.org/cc/ShareAlike" /></cc:License></rdf:RDF>
  </metadata>
  <style type='text/css' id='style_css_sheet'>
    .sjukvardsregion { fill:#e6e6e6; fill-rule:evenodd; stroke:black; stroke-width:0.10001; }
    .sjukvardsregion-border { fill:none; stroke:#a30000; stroke-width:0.62;}
  </style>
  <g id="Sjukvardsregioner" class="sjukvardsregion">
    <path id="Stockholm" class="sjukvard-Stockholm" d="m 189.375,423.6875 -0.1875,2.375 -0.6875,1.5 -1.5,-0.4375 -2.3125,-0.5 -0.4375,2.3125 -0.5,2.25 -1.875,0.625 1.5,1.875 -0.9375,0.375 L 182,440 l -1.6875,1.75 -3.6875,1 -1.0625,3.625 -0.5,0 -0.5,0.125 -0.1875,-0.125 -0.625,0.5625 -0.5,0 -0.75,0.625 -0.4375,0.25 -0.4375,0.0625 -1.875,0.75 0.125,0.3125 -0.4375,0.25 -0.25,-0.1875 -0.5,-0.0625 -0.5625,0.3125 -0.25,0.6875 -0.4375,-0.0625 -0.1875,-0.5625 -0.5625,-0.125 -0.3125,-0.4375 -0.6875,0 -0.6875,-0.125 0.125,0.875 -0.625,0.3125 -0.6875,0.6875 0.1875,0.25 -0.3125,0.5625 -0.375,0.0625 -0.3125,0.375 -0.3125,0.75 0.0625,0.8125 0.9375,0.875 -0.125,0.625 0.0625,0.3125 0.0625,0.3125 -0.25,0.75 -0.3125,0.25 -0.375,0.3125 -0.0625,0.25 0.125,0.3125 0.875,1 0.1875,-0.0625 -0.125,-0.3125 0.125,-0.3125 0.3125,-0.0625 0.1875,0.25 0,0.9375 0.125,0.375 0.375,0 0.125,-0.3125 -0.1875,-0.3125 -0.0625,-0.25 0.3125,-0.4375 0.5,0.0625 0.5,0.375 0.4375,0.25 0.0625,0.4375 0.25,0.3125 0.0625,0.75 0.375,0.1875 0.3125,0.0625 0,0.25 0.25,0.0625 0.25,-0.375 0,-0.9375 0.1875,-0.8125 0.25,-0.0625 0.25,0.6875 0.375,-0.25 0.25,0.25 -0.125,0.3125 -0.0625,0.125 -0.0625,0.125 -0.4375,1.5 -0.0625,0.5625 0.125,0.375 0.25,0.25 0.25,0.375 0.8125,0.875 0.625,0.625 0.9375,0.5 0.1875,0.4375 0.25,0.1875 0.4375,0.125 0.4375,0.4375 0.25,-0.0625 0.375,-0.125 0.125,-0.5 0.0625,-0.5 0.0625,-0.1875 0.125,0.0625 0.4375,0.5 0.4375,0.1875 0.375,0 0.5,-0.125 -0.0625,0.375 -0.0625,0.0625 -0.5,0.125 -0.5625,0.1875 -0.5,0 -0.1875,0.1875 -0.5625,0.125 -0.5,0.25 -0.4375,0.1875 -0.375,0.3125 -0.5625,0.3125 -0.125,0.5 0.1875,0.25 0,1.3125 -0.1875,0.375 -0.1875,-0.375 -0.1875,-0.5 -0.4375,-0.25 -0.875,0 -0.5625,0.125 -0.5,-0.1875 -0.5,0.4375 -0.5,-0.5 -0.25,-0.5 -0.5625,-0.3125 -0.6875,-0.1875 0,0.3125 -0.5,0.0625 -0.25,-0.1875 -0.4375,0.1875 -0.125,0.4375 0.125,0.25 0.1875,0.1875 0.0625,0.3125 0.1875,1 0.3125,0.875 -0.0625,0.3125 -0.375,-0.0625 -0.1875,-0.375 -0.4375,-1 -0.3125,-0.9375 -0.25,-0.375 -0.5625,0 -1.875,-1 -0.6875,-0.8125 -0.3125,0 -0.5625,-0.4375 -0.25,-0.0625 -0.1875,-0.3125 -0.375,0.125 0.0625,0.375 0.25,0.25 -0.0625,1.1875 0.125,0.3125 0.8125,1.3125 0.125,0.375 -0.8125,-0.375 -0.5625,-0.25 -0.6875,0 -0.6875,0.25 -0.4375,-0.75 -1.0625,1.25 0.375,2.375 1.25,2.25 -0.25,4.25 1.875,2.625 3.75,-0.0625 0.125,1.125 1.8125,0.875 0.5,2 0.375,-1.8125 0.5,0.125 0.4375,0.1875 0.25,-0.25 0.1875,-0.875 -0.0625,-1.4375 -0.1875,-2.25 -0.0625,-0.5625 -0.375,-0.25 -0.3125,0.25 -0.125,0.8125 -0.0625,0.625 -0.375,0.875 -0.25,0.1875 -0.1875,-0.625 -0.0625,-1.875 0.4375,-0.75 -0.0625,-0.25 -0.3125,-0.25 0,-0.375 0.1875,-0.1875 0.625,-0.5 -0.125,-0.1875 0.1875,-0.3125 0.1875,0.0625 0.25,-0.0625 0.125,-0.1875 0,-0.5 -0.125,-0.6875 -0.4375,-0.75 -0.0625,-0.375 0.25,-0.25 0.1875,0.1875 0.125,0.375 0.125,0.5 0.1875,0.25 0.25,1.3125 -0.25,0.8125 0,0.625 0.0625,0.75 0.375,0.0625 0.6875,-0.25 0.0625,-0.5625 -0.1875,-0.875 0.125,-0.3125 0.875,-0.5625 -0.0625,0.4375 0.1875,0.625 -0.3125,0.1875 -0.1875,0.5625 0.125,0.5 -0.25,0.375 -0.3125,0.5625 0,0.5 0.3125,0.6875 0.25,1.375 -0.1875,0.5 -0.0625,0.375 0.3125,0.375 -0.0625,1.75 -0.125,0.3125 0.1875,0.4375 0.5625,0.5625 0.5625,1.125 0.5625,1.1875 -0.0625,0.75 -0.3125,0.5 -0.4375,0.5625 0,0.5 1.5,-0.5 0.5625,-2.25 0.375,-0.375 0.375,-1.1875 0.5,-0.625 0.5625,-0.375 0.25,-1.0625 -0.25,-1.5 0.375,-1.125 0.0625,-0.4375 0.125,-0.5 0.1875,0.25 0.125,0.4375 0.1875,-0.0625 0.125,-0.1875 -0.0625,-0.375 -0.25,-1.1875 0.0625,-0.25 0.3125,0.0625 0.0625,0.375 0.25,0.125 0.1875,-0.25 0,-0.375 0.1875,-0.4375 0.375,-0.1875 0.5625,-0.0625 0.3125,-0.125 0.125,-0.4375 0.1875,-0.3125 0.625,-0.1875 0.125,-0.25 1.125,-0.4375 0.375,-0.3125 0.125,-0.25 -0.1875,-0.1875 0.1875,-0.375 0.3125,-0.1875 0.5,-0.0625 0.25,0.1875 0.0625,0.1875 -0.25,0.25 -0.25,0 -0.25,0.1875 -0.125,0.3125 0.1875,0.1875 -0.0625,0.1875 -0.25,0.125 -0.375,0.375 0,0.25 0.0625,0.25 0.3125,-0.125 0.3125,-0.375 0.5625,-0.3125 1.1875,-0.4375 0.375,-0.375 -0.0625,-0.3125 -1.125,0.125 0.375,-0.6875 0.6875,-0.3125 0.3125,-0.1875 0.375,0.0625 0.1875,0 0.5625,-0.625 0.25,0.0625 0.0625,0.1875 0.25,0 0.3125,-0.1875 0.3125,-0.1875 0.5,-1.1875 -0.1875,-0.125 -0.375,0.125 -0.375,0.125 -0.75,-0.3125 -0.3125,-0.3125 0.1875,-0.5625 0.5,-0.3125 0.1875,-0.25 -0.4375,-0.8125 -0.375,-0.0625 -0.375,-0.125 -0.4375,-0.5 -1.25,-0.875 -0.5625,-0.0625 -0.1875,-0.1875 -0.0625,-0.125 0.125,-0.1875 0.375,0 0.875,0.1875 0.4375,0.125 0.25,-0.125 -0.0625,-0.3125 -0.375,-0.125 -0.5625,-0.125 -0.125,-0.3125 -0.1875,-0.4375 -0.375,-0.125 -0.5,0.0625 -0.875,0 -0.1875,-0.25 -0.0625,-0.75 0,-0.5625 -0.1875,0 -0.4375,0.25 -0.875,0.4375 -0.5,0.125 -0.4375,-0.0625 L 176,465.75 l -0.3125,-0.1875 0,-0.0625 0.25,-0.125 -0.125,-0.25 0.4375,-0.0625 0.4375,0.4375 0.375,0.0625 0.3125,-0.1875 0,-0.3125 -0.3125,-0.5 -0.6875,-0.5 L 175.5,463 l 0.625,-0.6875 0.125,-0.5625 0,-0.6875 0.125,-0.25 0.3125,-0.3125 -0.125,-0.25 0.75,-0.5625 0.25,-0.125 0.125,0.4375 0.0625,0.25 0.3125,0 0.5625,-0.3125 0.125,0.125 0,0.25 0,0.4375 -0.1875,0.125 -0.4375,-0.1875 -0.1875,0.3125 -0.0625,0.5625 0,0.5 0.5,0.125 0.375,0.0625 0.375,0.1875 1.3125,-0.125 0.5625,-0.1875 0.1875,-0.25 -0.1875,-0.1875 -0.5625,0 -0.0625,-0.125 0.25,-0.1875 0.125,-0.1875 -0.375,-0.5 -0.1875,-0.25 -0.4375,0.0625 -0.25,-0.0625 -0.125,-0.1875 0.125,-0.25 0.4375,-0.0625 0.375,0.1875 0.5,-0.125 0.25,-0.25 0.125,-0.375 -0.125,-0.25 -0.3125,-0.0625 -0.3125,-0.1875 0.1875,-0.25 0.375,-0.0625 0.1875,0.25 0.1875,0.125 0.3125,-0.125 0.3125,0 0.125,0.3125 0.375,-0.0625 0.3125,0.0625 0.3125,-0.0625 0.4375,-0.8125 0,-0.25 0.125,-0.1875 0.5,-0.125 0.375,-0.375 0.3125,-0.5625 0.1875,-0.125 0.9375,-1.0625 0.4375,-0.0625 0.1875,-0.3125 0.75,-0.5625 0.6875,-0.5 0.5,-0.3125 0.875,-0.5625 1.25,-2.1875 0.3125,-2.5 2.6875,-1.5 3.6875,0.25 1.3125,-0.9375 -0.25,-2.0625 -2.3125,-0.6875 -0.125,-2 1.6875,0 0.875,-2.5 -1.5,-1.25 -2.25,-1.625 -1.75,-2.9375 -1.125,-4.125 L 191,428.5 l 0.3125,-3 -1.9375,-1.8125 z m 5.75,25.6875 -1.375,0.8125 -1.0625,1.875 -1.1875,1.0625 0.4375,0.375 1.9375,-1.5 1.125,0.1875 0.125,-1.1875 1.3125,-0.125 0,-0.9375 -1.3125,-0.5625 z m -5.8125,4.5625 -0.375,0.25 -0.1875,0.25 -1.0625,0.625 -0.125,0.4375 -0.3125,0.375 -0.1875,0.1875 0,0.3125 -0.1875,0.25 0,0.125 0.375,0.0625 0.1875,0.0625 -0.125,0.375 -0.25,0.375 -0.3125,-0.125 -0.0625,-0.3125 -0.25,-0.0625 -0.3125,0.125 -0.125,0.4375 0.1875,0.125 0.125,0.1875 -0.0625,0.5 0.0625,0.3125 0.375,0.25 0.125,0.3125 0,0.5625 0,0.3125 0.375,-0.0625 0.25,-0.4375 0.0625,-0.5625 0.0625,-0.25 0.3125,0 0.1875,-0.1875 0,-0.625 -0.1875,-0.5625 0.125,-0.375 0.1875,-0.1875 0.3125,0.0625 0.375,-0.1875 0.1875,-0.5 0.375,-0.625 0.1875,-0.3125 0.375,-0.0625 0,-0.25 -0.25,-0.125 -0.0625,-0.5 -0.3125,0 0,-0.1875 0.1875,-0.25 -0.25,-0.125 z M 195,459 l -0.4375,0.1875 -0.3125,0.375 -0.1875,0.3125 0,0.3125 0.125,0.4375 -0.0625,0.3125 -0.25,0.375 -0.0625,0.375 0.1875,0.125 0.375,-0.25 0.0625,-0.25 0.125,-0.25 0.375,-0.3125 0.3125,-0.375 0.0625,-0.5 0.25,-0.0625 0.1875,-0.1875 0,-0.375 -0.125,-0.25 -0.3125,0 -0.3125,0 z m -13.4375,0.6875 -0.1875,0.25 -0.0625,0.3125 -0.125,0.4375 0.3125,0.25 0.4375,-0.5 0.5625,-0.125 -0.0625,-0.1875 -0.375,-0.125 -0.25,-0.3125 -0.25,0 z m -16.75,0.125 L 164.5,460 l -0.0625,0.125 0.125,0.25 0.0625,0.5 0.625,1.3125 0.1875,0.75 0.4375,1 0.625,0.9375 0.4375,0.75 0.375,0 0.1875,0.1875 0.3125,0.5 0.6875,0.1875 0.4375,-0.125 0.1875,-0.375 -0.0625,-0.375 -0.25,-0.25 0.0625,-0.3125 0,-0.6875 -0.125,-0.5625 -0.25,-0.4375 -0.0625,-0.25 -0.6875,-0.6875 -0.125,0.125 0.0625,0.3125 L 167.5,463 167.25,462.875 166.9375,462.3125 167,462 l 0.25,-0.125 0.25,0 0.125,-0.125 -0.5,-0.5 -0.4375,-0.1875 L 166.375,461.25 166,461 l -0.5,-0.5625 -0.3125,-0.1875 -0.375,-0.4375 z m 31.25,0.5 -0.25,0.1875 -0.0625,0.375 -0.3125,0.1875 0.1875,0.3125 -0.0625,0.875 0.125,0.25 0.4375,0 0.125,-0.25 -0.125,-0.8125 0.4375,-0.6875 -0.0625,-0.3125 -0.4375,-0.125 z m -11.0625,0.375 -0.25,0.1875 -0.25,-0.0625 -0.1875,0.125 0.0625,0.1875 0.125,0.25 0.3125,0.125 0.125,0.25 0.125,0.4375 0,0.375 -0.125,0.4375 -0.0625,0.375 0.0625,0.1875 0.125,0.25 0.125,0.1875 0,0.4375 -0.1875,1.1875 0,0.375 0.3125,0.1875 0.3125,0 0.8125,0.5 0.5,-0.125 1.1875,-0.25 0.5625,-0.125 0.3125,-0.375 0.125,-0.5 0.0625,-0.4375 -0.25,-0.4375 -0.5,-0.25 -0.6875,-0.25 -0.5,0.125 -0.1875,-0.3125 0.5,-0.125 0.5,-0.0625 0.25,0.0625 0.25,-0.0625 0.25,-0.1875 0,-0.3125 -0.1875,-0.25 -0.3125,0 -0.4375,0.25 -1.5625,-1 -0.375,-1.125 -0.125,-0.125 -0.5,-0.0625 L 185,460.6875 z M 164.0625,461 l -0.4375,0.125 -0.3125,0.125 -0.375,0.3125 0.0625,0.5 0.125,0.4375 0.125,0.3125 0.25,0.125 0.1875,-0.0625 0.25,0 0.375,0.9375 0.25,0.25 0.375,-0.0625 0.0625,0.375 -0.125,0.3125 0.3125,0.125 0.125,0.6875 -0.0625,0.3125 0,0.375 0.1875,0.25 0.375,0.1875 0.875,0.4375 1,0.8125 0.875,-0.0625 0.3125,0.0625 0.1875,0.1875 0.6875,0.1875 0.625,-0.3125 0.125,-0.125 -0.125,-0.3125 -0.75,-0.375 0.0625,-0.1875 -0.3125,-0.0625 -0.5625,0.25 -0.3125,-0.0625 -0.625,-0.25 -0.8125,-0.5 -0.5,-0.375 -0.625,-0.125 -0.5,-1.75 -1.0625,-3.0625 -0.3125,0 z m -2.0625,0.4375 -0.5,0.1875 -0.0625,0.375 0.0625,0.25 0,0.3125 -0.0625,0.25 0.0625,0.1875 0.4375,0.4375 0.1875,0.375 -0.0625,0.375 0.25,0.5 0.375,0.375 0.3125,0.0625 0.1875,-0.3125 -0.125,-0.5 0.0625,-0.3125 0.125,-0.25 0,-0.375 -0.25,-0.25 -0.3125,-0.9375 -0.3125,-0.375 L 162.3125,461.5 162,461.4375 z m 14.6875,0.875 -0.1875,0.125 0,0.1875 0.0625,0.1875 0.3125,0.125 0.1875,0.25 0,0.3125 0.0625,0.25 0.375,0.5625 0.5,0.1875 0.5625,0 0.375,-0.1875 0.3125,-0.1875 0.125,-0.3125 -0.125,-0.1875 -0.0625,-0.125 0.125,-0.125 0.375,-0.0625 0.1875,-0.0625 -0.0625,-0.25 -0.375,-0.125 -0.3125,0.1875 -0.25,-0.0625 -0.6875,-0.125 -0.625,-0.3125 -0.5,-0.1875 -0.375,-0.0625 z m 13.1875,0.125 -0.75,0.3125 0.6875,1.125 0.1875,0.625 0,0.5 -0.0625,0.8125 0.1875,0.125 0.25,-0.125 0.5625,-0.375 0.375,-0.3125 0.125,-0.4375 0,-0.625 -0.0625,-0.5 -0.25,-0.5 -0.625,-0.4375 -0.25,0.25 -0.375,-0.4375 z m 5.375,0.6875 -0.1875,0.0625 -0.25,0.3125 -0.125,0.3125 -0.125,0.625 -0.0625,0.625 -0.1875,0.25 0.8125,0.0625 0.1875,-0.1875 -0.25,-0.375 -0.0625,-0.25 0.25,-0.5625 0,-0.3125 0.3125,-0.1875 -0.0625,-0.25 -0.25,-0.125 z m -13.9375,0.4375 -1,0.0625 -0.0625,0.375 -0.25,0.125 -0.5625,0.3125 -0.0625,1.125 0.0625,0.3125 0,0.1875 0.3125,0.1875 0.5625,0.0625 0.5,-0.25 0.3125,-0.3125 0.125,-0.3125 0.0625,-0.75 0.625,0.125 0.3125,0.125 0.4375,-0.0625 0.25,0.125 -0.1875,0.3125 -0.375,0.25 -0.125,0.1875 0.1875,0.6875 -0.1875,0.1875 -0.1875,0.1875 0.3125,0.1875 0.8125,0.0625 0.4375,0.6875 0.4375,0.1875 0.25,0.6875 0.625,0.375 0.5,0.0625 0.3125,0.6875 1,0.25 0.25,-0.1875 0.3125,-0.3125 0.375,-0.1875 0,-0.5 0.625,-0.1875 0.25,-0.3125 0.375,-0.125 0.4375,-0.125 -0.0625,-0.25 1.125,-1.375 -0.125,-0.25 -1.625,0.5 -1.6875,0.25 0,0.25 0.3125,0.25 -0.125,0.25 -0.1875,0 -0.75,-0.3125 -0.25,-0.3125 -0.5,-0.375 -0.625,-0.1875 -0.6875,0.1875 -0.25,-0.25 0.125,-0.4375 0.4375,-0.6875 0.0625,-0.1875 -0.1875,-0.1875 0.3125,-0.1875 0,-0.3125 -0.75,-0.6875 -0.5,-0.1875 -0.875,0.125 -0.3125,-0.125 -0.5,0.0625 -0.4375,-0.0625 z m -11,0.6875 -0.5,0.0625 -0.125,0.25 L 169.5,465 l 0.0625,0.3125 0.625,0.75 0.3125,0.5 0.375,0.0625 0.375,-0.3125 0.0625,-0.5 0.0625,-0.1875 0.1875,-0.125 -0.0625,-0.3125 -0.25,0 L 171,465 l -0.3125,-0.5625 -0.375,-0.1875 z m 22.3125,1.6875 -0.3125,0.125 -0.625,0.5 -0.3125,0.25 -0.1875,0.5625 0,0.4375 0.25,0 0.375,-0.125 0.375,0.1875 0.3125,-0.3125 0.125,-0.625 0.5,-0.5625 -0.5,-0.4375 z m -1.8125,3.875 -0.25,0.3125 -0.1875,0.3125 -0.5,0.9375 -0.0625,0.3125 0.375,-0.3125 0.375,-0.25 0.5,-0.1875 0.375,-0.125 0.3125,-0.1875 0.125,-0.4375 -0.3125,0 -0.625,0.3125 0.125,-0.5625 -0.25,-0.125 z m -5.25,4.75 -0.0625,0.0625 -1.1875,1.4375 -1,0.4375 -0.0625,0.1875 0.1875,0.0625 0,0.1875 -0.625,0.875 0.0625,0.1875 0.3125,-0.0625 0.0625,0.1875 -0.125,0.125 -0.1875,0.25 -0.1875,0.25 0.0625,0.5625 0.5,0.25 0.5625,-0.1875 0.125,0.375 0.3125,0 0.25,-0.375 0.125,-1.6875 0.625,-0.625 0,-0.625 0.5625,-0.5 0.1875,-0.4375 -0.5,-0.9375 z m -7.125,4.25 -0.6875,0.375 -0.75,0 -0.25,0.125 -0.1875,0.3125 0,0.0625 0.0625,0.375 -0.0625,0.3125 -0.5,0.5 -0.0625,0.1875 0.0625,0.5625 -0.125,0.3125 0.125,0.0625 0.375,-0.125 0.1875,-0.1875 0.1875,-0.5 0.25,-0.125 0.1875,0.1875 0.0625,0.375 0.25,0.1875 0.4375,-0.125 0.25,-0.25 -0.3125,-0.5625 -0.0625,-0.375 0.25,-0.1875 0.25,0.125 0.1875,-0.1875 -0.0625,-0.375 0.1875,-0.375 0.375,-0.0625 0.3125,-0.1875 0.125,-0.25 -0.3125,0 -0.75,-0.1875 z m 4.5,2.125 -0.3125,0.1875 -0.25,0.375 -0.75,0.5 -0.4375,-0.125 -1.4375,0.875 -0.25,0.1875 -0.6875,0.5625 -0.5625,0.5 0.0625,0.375 0.1875,-0.0625 0.375,-0.1875 0.375,-0.375 0.125,0.1875 0,0.375 0.6875,0.0625 0.25,-0.1875 0.25,-0.25 0.3125,-0.1875 0.4375,0.125 0.75,-0.4375 -0.25,-0.3125 -0.375,-0.25 0.1875,-0.3125 1.25,-0.75 0.1875,-0.1875 0,-0.5 -0.125,-0.1875 z m 21.5,44.625 -1.8125,1.1875 -0.4375,1.875 -1.25,1.0625 -3.5,-0.6875 -1,1.0625 -1.0625,3.125 -1.6875,-3.625 -1.3125,0.75 -1.125,1 -0.4375,1.9375 -1.1875,0.375 -1.375,0.5 -1.3125,1.125 -0.75,2.9375 -1.75,3.5 -1.625,2.375 -1.375,0.625 -1.9375,2.4375 -0.375,1.8125 0.5625,2.25 0.5625,2.4375 0.9375,1.1875 -0.3125,3 -1.25,1.5 -0.3125,1.8125 1.375,0.4375 0,3.5625 0.75,0.6875 1.125,0.8125 -0.3125,2.75 0.5625,0.3125 1.5625,-1.3125 0.3125,1.0625 -0.625,1.375 -1.625,1.0625 -0.1875,1.9375 -1.375,3.25 1.6875,0.125 2.75,-1.9375 1.75,-2.5625 -1.375,-0.5625 -0.125,-3 2.5625,-2 -1,-0.5 3.5,-2.75 0.375,-1 2.8125,-1.0625 0.875,-1.6875 -1.0625,-0.6875 -0.0625,-1.4375 1.6875,-2.75 1.5625,-0.5 1.9375,-0.6875 0.75,-2 -1.5625,-0.375 -1.625,-1.125 -1.125,-2.1875 0.75,-1.4375 0.25,-2.8125 -0.875,-0.5625 0.75,-3.3125 0.1875,-2.5 1.3125,0.875 1.875,-0.125 0.125,-2.875 1.5625,-0.0625 -0.125,-1.75 0.8125,-0.5625 1.5625,-1 0.875,-1.875 -0.5,-1.1875 0.5625,-0.6875 1.5,-0.5625 1.8125,-0.0625 0.6875,-0.8125 -0.4375,-1 -1.375,0.1875 -2.0625,-0.6875 z"/>
    <path id="Uppsala-Orebro" class="sjukvard-Uppsala-Orebro" d="m 118.125,325.625 -3.0625,0.25 -3.375,2.9375 0.25,3.0625 1.3125,0.9375 0.3125,3.5 -7.1875,5.5 0.5625,2.125 -0.1875,2.5 0,2.1875 -1.375,-1.125 -3.1875,-0.25 -0.5625,2.375 -1.5625,-2.875 -1.5625,0.875 -0.8125,-1.5 -3.6875,5.5625 -0.6875,7.4375 -1.9375,2 -1.25,-1.25 -3.4375,-1 -4.8125,-0.25 -2,-0.8125 -6.125,-1.125 -1.0625,0.75 -1.25,-1.75 0.25,-2.0625 -2,-4.25 -4.3125,-5.25 3.625,-3.3125 -1,-0.375 -0.5,-2.125 -3.0625,1.5 -2.5,-2.8125 -2,-2.875 -3,-4.0625 -3.875,0.1875 -6.6875,-2.1875 -4.5,24.6875 5.6875,7.625 3.25,-0.125 5.75,10.1875 -1,5.25 -1.1875,2.75 -1.9375,1.4375 -0.6875,4.4375 -1.375,0.4375 -2.9375,-0.4375 -5.75,1.25 2.125,6 -0.25,2.0625 1.0625,4.8125 2.5,4.5 -0.1875,2.25 1.9375,3.8125 -0.0625,5.0625 -2.75,3.9375 0.625,6.5625 L 45.75,427 l -1.5625,4.25 -1.625,1.1875 -0.8125,2.0625 -3,1.3125 L 37.1875,437.5 34.75,437.8125 32.8125,437 l -2.6875,2.4375 1.4375,2.9375 0.0625,2.8125 -1.4375,1.5625 -0.75,1.625 -2.6875,0.5 -1.25,2.3125 0.875,4.625 0.5,4.875 0.75,2 -0.1875,5 3.0625,-1.0625 3.0625,3.1875 -0.3125,-3.4375 4,0.125 0.6875,3.3125 1.875,0.8125 1.8125,-0.375 0.875,2.5 2.625,0.625 1.625,-2.75 1.6875,0.875 1.25,1.1875 0,3.875 L 52.75,475.5 52.875,477.375 55,477 l 0.625,1.875 1.25,0.0625 0.5625,4.5625 2.5,1.5 1.125,-1 -0.625,-7.125 -1.1875,-4.75 -1.375,-3.5625 1.3125,-1.3125 0,-3.4375 0.75,1.125 0.875,1 1.5,-0.1875 -0.625,-1.375 0.75,-1 2.25,-0.3125 1.3125,1.625 1.5,3.3125 1.8125,-1.75 0.6875,-2.1875 2.125,-0.9375 1.1875,2 1.625,-1.4375 1.6875,1.4375 1.4375,0.9375 2,-0.0625 0.75,4.25 -1.625,3.1875 -1.4375,2.75 -0.0625,2.5625 0.8125,0.3125 1.0625,-1.8125 1.75,-1.3125 1.25,1.0625 -0.8125,2.0625 2.25,0 1.3125,2 0.875,4.9375 1.4375,1.125 -1.0625,1.625 1.75,1.6875 1.375,0.125 0.1875,3.375 1.625,0 0.1875,1.3125 1.25,-0.375 0.6875,-1.875 1.4375,0 0.875,2.0625 2.3125,-1.4375 1.4375,-3.25 1.5625,-1 0,2.4375 0.8125,-0.25 0.125,1.625 -1,2.0625 2.1875,-1.25 0.5,-1.75 0.9375,-1.8125 1.125,-1.4375 1.3125,-0.0625 1.4375,-1.75 2.1875,1.3125 1.1875,-0.5625 0.75,1.3125 0.5,-2.125 2,0.0625 1.0625,-1.625 L 115.5,484 l 2.4375,-2.6875 2.625,1.0625 1.25,-2.6875 1.1875,0.625 0.4375,1.1875 2.3125,1.5625 2.3125,1.0625 1.0625,2.0625 1.6875,1.875 1.4375,0.375 0.625,0.9375 2.8125,5.5 4.25,0.125 3.5,1.1875 1.5,2.1875 1.6875,0.1875 2,0.1875 2.625,-0.9375 -0.0625,-1 -2,-0.5625 1.0625,-0.5625 1.375,0.1875 1.5,1 1,-1.6875 -1.1875,-1.125 -1.75,-1.5625 1.625,-0.625 1.1875,1.25 1.25,-0.0625 2.4375,0.5625 1,-1.1875 1.5625,0.3125 0.3125,-2.0625 0.6875,0.125 0.4375,0.125 1.25,-0.1875 -0.6875,-0.75 0.375,-2.9375 1.625,1.3125 0.75,-0.5625 -0.5625,-1.25 1.1875,-1.25 -0.5,-2 -1.8125,-0.875 -0.125,-1.125 -3.75,0.0625 -1.875,-2.625 0.25,-4.25 -1.25,-2.25 -0.375,-2.375 1.0625,-1.25 -0.6875,-1.6875 1.25,-0.9375 -0.25,-1.4375 -0.6875,-0.1875 1.1875,-1.5625 L 157,460.5 l -3.1875,-0.75 -0.625,1 0.8125,2.8125 -1.75,0.125 -0.9375,-3 0.6875,-1.625 -1.375,-1 -1.0625,0.5 -0.375,1.625 L 146.5,459 l -1.25,0.5625 -1.9375,0.1875 -2.3125,0.75 -2.125,-0.4375 -2.3125,0.5 -4.4375,0.3125 -3.375,0.3125 -0.6875,-2 2.75,0.0625 1.5625,-0.9375 2,0.9375 2.8125,-0.6875 0.9375,-1.25 1.5,-1.5625 -0.8125,-1.375 1.625,-0.8125 1.6875,1.1875 1.375,1.875 1.875,-0.8125 0.625,-1.0625 2,0.1875 1.625,1.625 1.625,-1 1.4375,-0.375 2.6875,1.1875 2.9375,2.5625 2.0625,0.0625 -0.125,-2.4375 -1.6875,-3.5 0.25,-0.4375 0.75,-0.375 0.125,0.8125 0.25,0.625 0.6875,0.9375 0.75,1 0.8125,0.5625 0.4375,-0.0625 0.3125,-0.5 0.3125,-0.6875 0.3125,-0.125 0.125,-0.625 -0.9375,-0.875 -0.0625,-0.8125 0.3125,-0.75 0.3125,-0.375 0.375,-0.0625 L 164,450.75 163.8125,450.5 164.5,449.8125 165.125,449.5 165,448.625 l 0.6875,0.125 0.6875,0 0.3125,0.4375 0.5625,0.125 0.1875,0.5625 0.4375,0.0625 0.25,-0.6875 0.5625,-0.3125 0.5,0.0625 0.25,0.1875 0.4375,-0.25 -0.125,-0.3125 1.875,-0.75 0.4375,-0.0625 0.4375,-0.25 0.75,-0.625 0.5,0 0.625,-0.5625 0.1875,0.125 0.5,-0.125 0.5,0 1.0625,-3.625 3.6875,-1 L 182,440 l 0.4375,-5.9375 0.9375,-0.375 -1.5,-1.875 1.875,-0.625 0.5,-2.25 0.4375,-2.3125 -0.1875,-2.5625 1.4375,0 0.625,-1.25 -0.9375,-1.8125 -1.9375,-1.5625 1.9375,-0.1875 0.3125,-1.5 -1.625,-0.5 -1.6875,-2.75 -0.9375,-4.0625 -0.8125,0.4375 -0.0625,2 1,4 -0.8125,1 -2.25,-0.625 -4,-3.4375 -2.5,-3.25 -0.3125,-3 -1.875,-1.25 -2.6875,1.25 -1.25,2.1875 -1.75,0.375 -1.25,-3.25 0,-2.5 -5.8125,0 -3.125,-1.6875 2.875,-2.75 -2.5,-2.4375 0.6875,-2.375 -2.5625,-4.5625 1.3125,-2.3125 -1.75,-1.375 0.25,-1.1875 -0.6875,-6.6875 1.5625,-1.5625 0.75,-2.9375 -2.75,-3.1875 -0.375,-2.375 1.5625,-2.75 -1.5,-3.375 1.3125,-2.4375 1.0625,-2.5625 0.9375,-2.25 2.3125,0.9375 0.8125,1.6875 1.375,0.5 0.6875,-3.9375 -2.0625,-0.875 -0.75,-1.25 0.0625,-2.75 -1.5625,-1.6875 0.8125,-4.125 1.625,-2.8125 0.75,-6.3125 -3.3125,-0.875 -1.9375,0.3125 -2.0625,-0.9375 -1.0625,0.625 -2.6875,-0.75 -1.375,0.25 -2.4375,-1.4375 -6.125,-1.5 -5.9375,-0.1875 -3.875,0.1875 -0.8125,-0.9375 -8.6875,-4.0625 z M 95,388.5625 l 1.875,2.75 1.3125,0 3.625,3.6875 1.6875,-1.0625 1.25,-1.125 1.875,1.3125 -1.4375,1.625 -1.75,0.6875 -0.375,3.5625 -1.3125,-3.3125 -3.9375,1.9375 -1.375,-2.25 -2.3125,-3.0625 1.75,0.0625 1.0625,-0.5625 -1.125,-1.1875 -1.6875,-0.1875 -0.25,-1.75 1.125,-1.125 z m 21.0625,77.625 1.5625,0.3125 3.375,0.125 0.875,1.625 1.375,-0.6875 3.375,0.25 1.6875,1.25 4.5,-1.5 1,0.125 -0.875,1.5 L 131,470 l -2.5625,0.25 -1.625,0.6875 -2.625,0.9375 -0.1875,1.6875 -1.125,1.125 -1.625,-0.1875 -2.75,-0.3125 -1.25,-1.8125 0.9375,-1.4375 -1.875,-2.4375 -3.1875,1.125 -3.375,-1.375 -0.0625,-1.1875 3.3125,0.125 3.0625,-1 z" />
    <path id="Sydostra" class="sjukvard-Sydostra" d="m 121.8125,479.6875 -1.25,2.6875 -2.625,-1.0625 L 115.5,484 l 0.875,1.5625 -1.0625,1.625 -2,-0.0625 -0.5,2.125 -0.75,-1.3125 -1.1875,0.5625 -2.1875,-1.3125 -1.4375,1.75 -1.3125,0.0625 -1.125,1.4375 -0.9375,1.8125 -0.5,1.75 -2.1875,1.25 -0.3125,3.0625 -1.6875,2 1.6875,1.375 1.4375,0.3125 0.8125,0.75 -1.5,0.9375 -0.9375,2.3125 -1.5,0.6875 -1.0625,-1.125 L 97.0625,506 97,507.5 l -2.8125,2.3125 -0.375,1.5625 -0.5,1.5625 0.3125,1 -0.625,1 -0.625,3.125 -1.375,4.5625 -1.75,2.8125 -0.5,1.9375 -2.4375,1.5625 -1.75,3.0625 -0.5,2.1875 -0.25,2.6875 -1.25,0.125 -0.75,0.5625 -0.6875,-0.5 0.25,-1.875 L 81,533.25 80.3125,532.625 80.5,529.25 l 1.0625,-1.8125 0.9375,-3.125 0.5625,-3.6875 -2.4375,-0.3125 -0.0625,3.5 -1.0625,1.3125 -0.125,0.8125 -2.6875,0.8125 -0.1875,-1.125 -1.8125,-0.8125 -0.75,0.5 -1.1875,-0.6875 -0.5625,0.125 -0.5,1.6875 -1.25,1.4375 -0.0625,2.0625 0.9375,2.5625 -0.25,1.8125 L 71,538 70.125,539.3125 70,540.625 l 0.6875,1.8125 -0.375,1.25 -1.1875,0.5625 -0.125,1 0.1875,2.125 -0.4375,1.25 -1.125,0.8125 -3,4.5 -0.625,1.625 -1.4375,0.75 0,1.125 -1.125,0.25 L 61,558.5625 59.0625,559 l -0.625,2.5625 -1.125,-0.4375 -0.75,1 -0.5625,2.25 -1.25,1.625 -1.25,0.9375 0.0625,1.5 0.9375,3 2.3125,-2 0.25,-1.4375 1.0625,0.5625 2.25,-0.9375 2.5625,0.5 0.625,-0.625 0.25,1.5 0.75,-0.1875 2.0625,1.3125 -0.5,1.75 0.6875,1.5 1.625,0.625 0.5625,-3.0625 1.125,-0.6875 1.8125,0.25 1,2.625 1.5,-0.75 0.3125,-1.125 2.25,-0.5625 1.375,0.4375 0.9375,1.0625 0.5625,-0.4375 1.4375,2.4375 0.1875,1.9375 1.0625,2.5 1.125,0.625 1.25,-0.6875 1.375,-3.3125 -1.5,-1.9375 -0.25,-1.625 0.5,-0.75 0.125,-4.3125 1.1875,0 2.5,-0.0625 1.4375,-0.3125 0.25,-1.5 1,0.1875 L 92,564.3125 93.5625,564.125 95,563.25 l 1.5,0 1.625,0.875 1,1.125 0.375,2.3125 1.4375,-0.125 0.5,-1.125 1.0625,-0.25 1,-0.6875 0.5,-0.75 1.75,0.125 -1.0625,-1.625 1.5,0 1.125,0.875 4,-0.625 3.875,1.5625 0.625,0.6875 -0.5,1.5 2.3125,1 0.875,2.0625 1.875,0.75 1.5625,2.1875 1.0625,2.1875 -0.8125,2.5625 -2.9375,0.25 -1.0625,0.25 -2.4375,-0.875 -1.125,0.5 0,0.9375 1,2.875 -0.25,1.4375 -2.625,0.3125 -2.0625,0.875 1.5625,2.9375 -0.3125,2 0.3125,1.1875 -1.5,1.9375 0.25,2.125 -0.75,0.6875 -0.1875,2.625 1.5625,-0.5625 2.1875,0.8125 0.25,-1.5 1.875,0.6875 0.625,1.4375 1.25,-0.0625 0.4375,1.25 0.5625,1.125 1.375,0.4375 1.625,3.125 1.4375,1 2.4375,-0.125 1.125,0.8125 1.625,-0.8125 0.8125,-3.6875 0.9375,-3.125 1.0625,-1.125 0.625,-2.125 0.9375,-0.375 -0.0625,-2.1875 0.3125,-1.375 1.125,-2.25 1.875,-0.4375 1.0625,-4.6875 1.0625,0.9375 L 139,584.1875 138.3125,583 l -0.9375,0.5625 0.75,-4.1875 0.5625,-2.5 -0.125,-2.0625 0.875,-2.5 2.25,-3.375 -2.125,-1 -0.9375,-3 0.875,-1.8125 -0.4375,-2.25 1.9375,-1.5 -0.3125,-2.5 1.75,-0.0625 0.9375,-2.5 0.8125,-2.75 -0.5625,-1.6875 -2.25,-2.6875 2.25,-0.25 0.875,-0.8125 0,-1.5 -1.625,0.625 -0.875,-1.1875 0.6875,-1.8125 1.4375,-0.875 -0.0625,-2.25 -1.8125,-1.25 -2.125,-3.0625 1.625,-2.4375 2.125,0.4375 1.4375,1.1875 0.5,-2.75 -0.5,-3.75 -1,-2.125 1.5625,-1 -2,-2 -0.375,-1.4375 2.25,1 1.1875,-3.0625 -1.3125,-2 -2.125,-1.5 4.0625,-0.875 0.875,-2.1875 -1.875,-1.4375 -2.3125,-0.1875 -0.625,-1.5625 -2.25,-0.6875 -0.8125,-1.1875 1.1875,0.125 2.625,0.5 2.625,-1 1.75,-2.875 -1.875,-1.875 -2.8125,-2.1875 -3.4375,-1.5625 -3.625,-0.25 -0.5,2.125 -1.3125,-1.625 -1.9375,0.8125 -0.8125,-0.375 0.0625,-1.5625 0.9375,-0.875 2.4375,0.375 1.6875,0 3.25,0.8125 2.5,0.4375 1.625,0.125 -1.5,-2.1875 -3.5,-1.1875 -4.25,-0.125 -2.8125,-5.5 -0.625,-0.9375 -1.4375,-0.375 -1.6875,-1.875 -1.0625,-2.0625 -2.3125,-1.0625 -2.3125,-1.5625 -0.4375,-1.1875 -1.1875,-0.625 z m 31.75,77.25 -1,0.875 -1.375,2 -0.1875,2.3125 -0.25,1.5 -1,0.625 0.3125,1.5625 -0.625,2.375 -1.125,2.4375 -0.75,1.9375 -1,1 -0.8125,2.25 -0.75,2.875 -1.5,0 -1,0.875 -0.875,2.75 -1.3125,2.6875 -1.5625,3.9375 -0.4375,2.4375 -1.3125,2.3125 -0.1875,1.875 0.1875,4.75 0.5,0.25 -0.125,7.375 0.5,0.8125 -0.1875,2.375 1.6875,-1.5 0.8125,-2.625 1.625,-3.9375 -0.375,-1.5625 1.0625,-2.5625 0.75,-2.875 0.1875,-2.125 1.3125,-1.375 -0.1875,-1 L 145,589 l 1.875,-6.875 1.1875,-0.3125 0.6875,-1.6875 -0.0625,-1.4375 0.5625,-1.0625 0.0625,-3.1875 1.375,-1.25 -0.625,-1.5 1,0.0625 0.875,-3.1875 1.25,-2.75 0.625,-0.625 0,-2.8125 -0.375,-1.0625 0.625,-1.5625 1.25,-0.6875 -0.4375,-1.8125 -0.75,0.375 -0.5625,-0.6875 z" />
    <path id="Sodra" class="sjukvard-Sodra" d="m 104.6875,563.125 1.0625,1.625 -1.75,-0.125 -0.5,0.75 -1,0.6875 -1.0625,0.25 -0.5,1.125 -1.4375,0.125 -0.375,-2.3125 -1,-1.125 -1.625,-0.875 -1.5,0 -1.4375,0.875 -1.5625,0.1875 -0.4375,0.625 -1,-0.1875 -0.25,1.5 -1.4375,0.3125 -2.5,0.0625 -1.1875,0 -0.125,4.3125 -0.5,0.75 0.25,1.625 1.5,1.9375 -1.375,3.3125 -1.25,0.6875 -1.125,-0.625 -1.0625,-2.5 -0.1875,-1.9375 -1.4375,-2.4375 -0.5625,0.4375 -0.9375,-1.0625 -1.375,-0.4375 -2.25,0.5625 -0.3125,1.125 -1.5,0.75 -1,-2.625 L 70.125,570.25 69,570.9375 68.4375,574 l -1.625,-0.625 -0.6875,-1.5 0.5,-1.75 -2.0625,-1.3125 -0.75,0.1875 -0.25,-1.5 -0.625,0.625 -2.5625,-0.5 -2.25,0.9375 -1.0625,-0.5625 -0.25,1.4375 -2.3125,2 -0.9375,-3 -1.4375,0.6875 -0.75,1.6875 -1.6875,-0.5 -1.1875,1.4375 -0.8125,0 -0.75,2.0625 2.25,1.25 -0.9375,1.1875 -0.375,2.1875 -1.375,0.875 -1.875,-0.0625 -2.5625,1.875 -0.9375,1.3125 0.8125,2.5 0.8125,1.9375 1,2.1875 1.4375,0.0625 1.4375,-0.875 1.5,0.875 0.6875,2.375 0.3125,2.0625 -0.1875,2.25 -0.5,1.375 -0.875,1.1875 -1.5,0.625 -1.25,-0.9375 -1.6875,-0.75 -1.25,0.5 -1.3125,1.0625 0.125,1.8125 1.375,0.4375 1.25,1.125 0.5625,1.6875 1.25,1.3125 0.6875,1.5 -0.5625,1.375 -1,0.6875 -0.625,-0.1875 -0.875,-0.3125 -0.75,0 -0.625,-1 -2,-1.1875 -2.3125,-1.5625 -1.1875,0.125 1.0625,0.875 0.8125,1.5 0.3125,1.4375 0.4375,2.875 0.25,0.8125 0.875,1 1,1.625 1.25,1.5625 1,1.9375 0.4375,2.3125 1.375,4.25 1.8125,0.4375 0.5,1.75 0.125,2.375 -0.3125,0.25 -0.375,0.5 0.375,0.6875 0.75,-0.375 0.3125,0.6875 -0.3125,0.5 0.4375,0.1875 0.625,0 0.9375,0.75 0.4375,0.3125 0.3125,0.9375 0,0.375 -0.375,0.9375 0,0.3125 0,0.5 -0.1875,0.5625 -1.0625,0.25 -0.8125,0.5625 -1.375,0.8125 -0.5,0.5 0,0.875 0.125,1.1875 0.5,1.25 0.3125,0.8125 0.25,0.8125 -0.125,1.0625 -0.375,1.0625 -0.3125,0.5625 -0.625,-0.125 -0.75,-0.3125 -0.25,-1 -0.125,-0.3125 -1.375,2.8125 1.5625,-0.5625 0.5,0.125 0.375,0.4375 0.4375,0 0.125,-0.375 0.375,-0.1875 0.8125,-0.1875 0.9375,0.6875 1.25,0.875 0.625,0 0.9375,-0.1875 2.4375,0.625 1.3125,0.75 0.625,0.25 0.875,-0.125 0.4375,0.5 1.1875,-0.75 1.0625,-0.0625 L 60,648.5 l 0.875,-0.3125 2.875,0.125 1.5,-1.8125 1.375,0 0.9375,-0.5625 3,0.25 1.75,-0.375 1.0625,0.4375 2.6875,2.0625 1.125,-0.125 2.3125,0.375 0.5,-0.875 1.375,-2.5 1.9375,-2.0625 0.875,-1.75 -0.3125,-2.0625 -1.375,-1.25 -0.4375,-2.6875 -1.5625,-1.0625 -0.375,-3.0625 0.3125,-3.1875 1.9375,-3.5 L 83.5,624 l 0.875,-2.0625 2,-1.1875 1,-1.875 2.0625,-0.6875 L 91,619.5 l 1.4375,0.75 1.625,0.125 1.5,-1.6875 L 94,617 93.0625,614.875 93,612.9375 l 1.375,0.3125 1.0625,0.0625 1.9375,-0.25 2.625,-0.125 1.8125,-0.0625 1,-1.125 0.9375,1.125 1.75,0.0625 2.3125,-0.375 1.0625,-0.375 0.5625,2 1.8125,-1 0.625,-1.1875 1.1875,1.3125 1,-1 1.6875,-0.625 0.875,0.625 2.5625,-0.4375 1.3125,1.125 -0.4375,1.375 -1.625,1.5625 1.1875,0.4375 2,-1.1875 1.6875,1.5 1.5625,-3.4375 1.125,-0.75 1.375,-2.875 1.0625,-4.0625 -1.625,0.8125 -1.125,-0.8125 -2.4375,0.125 -1.4375,-1 -1.625,-3.125 -1.375,-0.4375 -0.5625,-1.125 -0.4375,-1.25 -1.25,0.0625 -0.625,-1.4375 -1.875,-0.6875 -0.25,1.5 -2.1875,-0.8125 -1.5625,0.5625 0.1875,-2.625 0.75,-0.6875 -0.25,-2.125 1.5,-1.9375 -0.3125,-1.1875 0.3125,-2 -1.5625,-2.9375 2.0625,-0.875 2.625,-0.3125 0.25,-1.4375 -1,-2.875 0,-0.9375 1.125,-0.5 2.4375,0.875 1.0625,-0.25 2.9375,-0.25 0.8125,-2.5625 -1.0625,-2.1875 -1.5625,-2.1875 -1.875,-0.75 -0.875,-2.0625 -2.3125,-1 0.5,-1.5 -0.625,-0.6875 -3.875,-1.5625 -4,0.625 -1.125,-0.875 -1.5,0 z" />
    <path id="Vastra" class="sjukvard-Vastra" d="m 33.25,466.375 0.3125,3.4375 -3.0625,-3.1875 -3.0625,1.0625 -1.5625,1.1875 -0.3125,3.875 0.4375,0.875 -1.8125,2.6875 -0.9375,2.3125 -0.0625,1.5625 -0.75,1.9375 -3.5625,1.5 -1.1875,-0.875 -0.125,-1.125 0.5,-4.375 -2,-4.5 -1,-0.3125 -0.9375,0.5625 -0.625,0.3125 -1,0.1875 -2.1875,3.5 -0.0625,2.0625 0.1875,0.5625 0.625,0.9375 0,0.4375 -0.3125,0.125 -0.5625,-0.25 -0.125,0.1875 L 10,481.75 l 0.8125,2.4375 0.125,1.0625 -0.375,4.0625 1.6875,3.125 1.0625,4.125 L 12.25,498 l 1.0625,4.5 0.0625,0.6875 0.125,0.625 -0.1875,0.5625 -0.5,0.3125 -0.3125,-0.0625 -0.125,-0.6875 -0.5,0.125 -0.1875,0.625 0,0.8125 0.0625,0.625 0.125,0.5625 -0.6875,0.8125 0.125,0.4375 0.8125,0 0.875,-0.5 0.1875,-0.5 0.375,0.0625 0.25,0.4375 0.5625,0.25 0.75,-0.6875 -0.0625,1.4375 0.75,-0.1875 -0.25,1 -0.25,0.8125 0.4375,0.3125 0.5625,0.125 -0.1875,0.8125 -0.4375,0.4375 0.0625,0.3125 1,-0.125 0.5625,-0.5 0.625,-0.875 0.5625,-0.4375 0,1.25 -0.375,0.5625 -0.625,0.6875 -0.625,0.4375 -0.75,0.125 -0.375,0.5625 -0.6875,1.125 0.1875,0.25 1.0625,0 1.1875,-0.25 0.875,-0.375 0.625,-0.75 0.4375,-0.875 0.75,-0.125 0.625,-0.4375 0.625,-0.6875 0.625,-1.0625 0.9375,0.0625 0.25,-0.5 -0.4375,-0.5625 0.9375,-0.0625 1.0625,0.375 1.5,0 -1,1.125 -0.1875,0.5625 0.75,1.25 0.4375,1 0,1.0625 0.75,0 -0.0625,0.75 -0.625,0.625 -0.5,0.1875 0.125,1.0625 -0.125,1.1875 -0.4375,0.75 -0.5,0.6875 -0.4375,0.5625 0.0625,1 0.125,1.0625 -0.0625,1 -0.375,1.125 -1.25,1.3125 -0.1875,0.5 0,0.625 0.3125,0.5 -0.875,1.5625 -0.25,0.875 -0.3125,0.625 -0.5,0.625 -0.1875,0.625 0.3125,0.5 0.5,0.5 0.1875,0.375 0.125,1 0.25,0.1875 0.75,-0.125 0.5,0 -0.3125,1.5 -0.875,0.25 -0.875,0.375 -0.5,0.6875 0,0.4375 0.125,0.3125 0.375,0.6875 0.4375,0.125 0.3125,0 0.3125,-0.125 0.125,-0.625 0.375,-0.125 0.375,0.1875 0.375,0.75 1.125,-0.25 0.375,0.25 0.75,-0.25 0.5,0 -1.8125,1 -0.1875,0.375 0,0.375 0.6875,2.0625 0.3125,0.0625 0.4375,-0.75 0.1875,0.4375 -0.125,2.0625 -0.125,1.0625 0,1.5625 0.0625,1.25 -0.6875,1.8125 -0.25,0.875 0.125,0.75 0.8125,2.25 0.375,0.8125 0.625,0.3125 0.4375,-0.25 0.3125,-0.6875 0.625,-2.25 0.375,-1.125 0.5,-0.5 0.5,0.3125 0.1875,1 -0.0625,2.1875 -0.6875,1.6875 0.3125,0.4375 0.875,-0.1875 0.375,0.4375 0.1875,1.5625 0.125,1.25 -1.25,0.625 -0.125,1.8125 1.5,1.9375 1.1875,2.0625 0.1875,2.625 0.75,1.875 1.125,0.8125 0.6875,1.625 0,1.25 L 34.75,575 l 1.25,1.5625 1.875,0.75 1.9375,1.5625 1.4375,1.3125 -0.125,2.25 0.9375,-1.3125 2.5625,-1.875 1.875,0.0625 1.375,-0.875 0.375,-2.1875 0.9375,-1.1875 -2.25,-1.25 0.75,-2.0625 0.8125,0 1.1875,-1.4375 1.6875,0.5 0.75,-1.6875 1.4375,-0.6875 -0.0625,-1.5 1.25,-0.9375 1.25,-1.625 0.5625,-2.25 0.75,-1 1.125,0.4375 L 59.0625,559 61,558.5625 l 0.4375,-0.875 1.125,-0.25 0,-1.125 1.4375,-0.75 0.625,-1.625 3,-4.5 1.125,-0.8125 0.4375,-1.25 L 69,545.25 l 0.125,-1 1.1875,-0.5625 0.375,-1.25 L 70,540.625 70.125,539.3125 71,538 l 0.0625,-3.6875 0.25,-1.8125 -0.9375,-2.5625 0.0625,-2.0625 1.25,-1.4375 0.5,-1.6875 0.5625,-0.125 1.1875,0.6875 0.75,-0.5 1.8125,0.8125 0.1875,1.125 2.6875,-0.8125 0.125,-0.8125 1.0625,-1.3125 0.0625,-3.5 2.4375,0.3125 0.1875,-1.875 0.875,-1.875 0.75,-3.375 1.75,-2.125 1.1875,-2.625 1.375,-3.0625 1,-0.5625 1.0625,-2.75 0.1875,-1.8125 0.125,-2 1.125,-1.0625 2,-0.9375 1.25,-1.5 -0.875,-2.0625 -1.4375,0 -0.6875,1.875 -1.25,0.375 -0.1875,-1.3125 -1.625,0 -0.1875,-3.375 -1.375,-0.125 -1.75,-1.6875 1.0625,-1.625 -1.4375,-1.125 -0.875,-4.9375 -1.3125,-2 -2.25,0 -2.8125,1.6875 0.4375,2.25 -0.5,2.5625 -1,2.1875 -1.4375,1.4375 -1.25,-0.875 -4.0625,-0.8125 -0.5,1.5 1.375,1.4375 0.25,1.75 1.0625,-0.75 1.75,-0.625 0.875,0.5 -0.6875,1.125 -2.25,1.875 -1.625,0.4375 -2.1875,0 -2.0625,1.25 -2.375,0.75 -2.1875,1.5 -0.6875,2.375 -0.5,2.125 -1.1875,0.8125 -1.875,-0.3125 -0.9375,-0.75 1.4375,-4.3125 0.9375,-2.9375 -1,-0.875 -1.625,-0.375 -2.6875,4.1875 -1.625,1.625 0.0625,0.875 -1.5,2.375 -2.9375,0.4375 -1.8125,2.125 0.0625,1.0625 -1.75,0.6875 0.5625,-2.75 -1.4375,-0.1875 -2.125,3.125 -1.375,-0.3125 -0.875,0.625 -2.25,-0.4375 0.125,-1.375 1.5,-2.0625 1.9375,-1.1875 1.5625,-1.875 1.125,-2 1.4375,-1.75 1.1875,-1.0625 -0.4375,-0.8125 -2.5,-0.25 -1.0625,-1.3125 -0.0625,-2.6875 1.75,-2.6875 2.0625,-3.125 0.5,-3.5 0.9375,-1.4375 2.1875,-3.75 0,-3.875 -1.25,-1.1875 -1.6875,-0.875 -1.625,2.75 -2.625,-0.625 -0.875,-2.5 -1.8125,0.375 -1.875,-0.8125 -0.6875,-3.3125 -4,-0.125 z m -10.0625,44.8125 -0.5,0.0625 -0.8125,0.4375 -0.125,0.6875 0.0625,0.6875 -0.1875,0.5 -0.3125,0 -0.625,-0.125 -0.5,0.125 -0.5625,0.625 -0.5,0.625 -0.6875,0.375 -0.5,0.3125 -0.75,0.25 -0.375,0.3125 -0.5,0.3125 -0.625,-0.0625 -0.625,-0.1875 -0.6875,0.875 -0.5,1.125 0.3125,-0.125 0.375,-0.5625 0.5,0.125 0.125,0.5 0.4375,0.5 0.5,0.6875 0.375,0.625 -0.1875,0.5625 -0.375,0.5625 -0.25,0.25 0.375,0.375 0.5,-0.4375 0.25,0.375 0.375,0.1875 0.5,-0.125 0.5,-0.5625 0.4375,-0.6875 0.1875,-0.6875 0.375,-0.5 0.8125,-0.5 0.5625,0.3125 0.6875,0.5 0.4375,0.375 -0.125,0.625 0.5625,0.125 0.5,-0.6875 0.5,-0.3125 0.25,-0.0625 0.6875,-0.0625 0.875,-0.0625 0.25,-0.8125 0.125,-1.1875 -0.0625,-0.9375 0.1875,-0.75 0.3125,-0.8125 -0.1875,-0.625 -0.4375,-0.5625 -0.4375,-0.4375 -0.4375,-0.375 -0.1875,-0.8125 0,-0.8125 -0.875,-0.125 z m 0.25,8.8125 -0.0625,0.625 -0.125,0.625 0.25,-0.0625 0.3125,-0.4375 0.0625,-0.5 -0.4375,-0.25 z m -0.5,0.1875 -0.375,0.75 0.5,0.0625 -0.125,-0.8125 z m -2.0625,0.25 -0.25,0.1875 -0.5,1.1875 -0.3125,0.3125 -0.5,0.125 -1.375,-0.25 -0.375,0.125 -0.3125,0.25 -0.3125,0.625 0,0.4375 0.1875,0.375 0.4375,0.125 1,-0.0625 0.0625,0.375 -0.0625,0.3125 -0.6875,0.0625 -0.25,0.125 -0.125,0.4375 0.0625,0.625 0.125,0.3125 0.1875,0.125 0.4375,0.25 0,0.875 0.125,0.375 0.8125,0 0.25,-0.4375 0.25,-0.5 0.3125,-0.25 0.5625,-0.1875 0.375,-0.25 0,-0.3125 0.25,-0.5625 0.1875,-0.8125 0.5,0.0625 0.0625,0.5625 0.375,0 0.375,-0.3125 0.25,-0.6875 0.0625,-1.125 L 23,522.125 l -0.4375,-0.5 -0.75,0.5 -0.4375,-0.25 0.3125,-0.5 0.125,-0.5 -0.5,-0.375 -0.4375,-0.0625 z m -0.8125,8.75 -1,0.1875 -0.875,1.1875 0.75,0.5625 1.8125,-0.875 0.375,-1 -1.0625,-0.0625 z m -1.5,5 -0.6875,2.3125 0.4375,0.1875 1.0625,-1.375 -0.8125,-1.125 z m 1.9375,1.75 -0.4375,0.1875 -0.5,0.375 L 19.5,537.375 19.0625,537.3125 19,537.75 l 0.1875,0.1875 -0.0625,0.4375 -0.625,-0.0625 0.0625,0.4375 1.1875,0.9375 0.25,-0.1875 0.1875,-0.5 0,-0.8125 0.3125,-0.875 0.3125,-0.5625 -0.3125,-0.8125 z" />
    <path id="Norra" class="sjukvard-Norra" d="m 201.625,11.9375 -7.875,1.4375 3.8125,5.25 0.75,5.0625 -1.375,6.0625 -2.3125,3.75 -2.0625,2 5.125,2.4375 -5.1875,6.5625 -16.3125,-5.625 -6.4375,1.0625 -3.5625,-3.125 -4.8125,2.3125 -0.125,6.125 1.6875,9.8125 -3.5,9.0625 -0.4375,1.5 -4.625,-3.4375 -6.375,-3.25 -1.625,3.125 L 139,67.625 138,68.5625 134.9375,82 133,85.8125 l -3.875,0.75 -1.5,4 5,8.75 0.6875,2.9375 -0.875,6.9375 -4.875,4.25 -1.9375,2.375 -6.6875,13 -4.5625,5.25 1.375,6.0625 0.3125,2.875 -8.375,6.4375 -1.0625,0.125 -8.375,0.375 1.625,14.8125 -1.875,5.5625 -1.0625,11.1875 -0.1875,6.625 -2.5625,2.5 -0.9375,6 -2.375,3.125 -11.5,21.5625 4.9375,3.6875 3.25,1.125 0.875,1.125 0.0625,2.875 0.375,9.5625 -4.3125,8.5625 -5.125,-1.8125 -8.5625,-2.0625 -2.0625,-0.5 -6.375,1.875 -4.5,3.4375 -6.5625,9.8125 -1.4375,1.6875 -0.625,2.5625 -3.125,3.3125 L 47.25,271.875 41.8125,281 46,293.9375 l -2.8125,4.125 0.75,7.125 -2.0625,6.125 4.5,16.75 6.6875,2.1875 3.875,-0.1875 3,4.0625 2,2.875 2.5,2.8125 3.0625,-1.5 0.5,2.125 1,0.375 -3.625,3.3125 4.3125,5.25 2,4.25 -0.25,2.0625 1.25,1.75 1.0625,-0.75 6.125,1.125 2,0.8125 4.8125,0.25 3.4375,1 1.25,1.25 1.9375,-2 0.6875,-7.4375 3.6875,-5.5625 0.8125,1.5 1.5625,-0.875 1.5625,2.875 0.5625,-2.375 3.1875,0.25 1.375,1.125 0,-2.1875 0.1875,-2.5 -0.5625,-2.125 7.1875,-5.5 -0.3125,-3.5 -1.3125,-0.9375 -0.25,-3.0625 3.375,-2.9375 3.0625,-0.25 8.6875,4.0625 0.8125,0.9375 3.875,-0.1875 5.9375,0.1875 6.125,1.5 2.4375,1.4375 1.375,-0.25 2.6875,0.75 1.0625,-0.625 2.0625,0.9375 1.9375,-0.3125 3.3125,0.875 0.9375,-2.3125 1.875,-0.5 0.625,-2.0625 -3.3125,-0.9375 -1.75,-2.8125 0.375,-1.75 1.6875,-0.5 -0.5,-3.6875 -2.25,-0.8125 -0.0625,-1.25 1.875,-0.75 1.625,3.3125 3.1875,0.6875 -0.5,-2.25 1.5625,-1.4375 2.125,1.1875 1.1875,-3.5625 3.25,-2.625 -1.9375,-1.625 1.5,-1.3125 2.1875,-3.5625 -2.875,0.25 -0.3125,-1.625 2.6875,0.5625 2.9375,-3.125 -1.3125,-1.25 1.0625,-0.9375 2.4375,1.75 2.125,-3.6875 1,-3.25 -3.5,-0.5 0.4375,-1.375 1.75,-0.125 0.25,-2.1875 2.0625,-4.3125 2.375,0.0625 4.375,-3.0625 1.8125,1.1875 1.5625,-2.0625 0.125,-3.875 2.3125,-0.625 0.75,-6.5 2.25,0.5 1.8125,-0.875 -1.4375,-2.875 0.9375,-1.375 2.5,2.25 2,3.5625 1.625,-1.25 -0.75,-2.4375 0.5625,-1.0625 3.125,-4.0625 1.75,0.0625 0.25,-2.25 2.1875,0.3125 3.4375,-0.25 0.4375,-1.4375 1.8125,-0.0625 0.375,-3.375 1.625,-2.1875 3,-0.5625 1.375,-2.75 1.375,-3.6875 1.5,-5.1875 0.5,-4.5 2.25,-3.0625 2.625,-3.625 4,-3.375 2.25,-4.3125 -0.125,-1.625 -1.625,0.25 -1.0625,-3.75 -1.875,-1.9375 -2.3125,-0.3125 -1.4375,-2.375 0.9375,-1.3125 -0.125,-3.875 -3.6875,-0.25 -1.25,-2.5625 2.3125,0.375 2.375,-3.375 -0.8125,-2.375 2.3125,-1 2.375,-5.4375 1.1875,-3.1875 -1.0625,-4.4375 1.6875,-1.3125 0.25,-1.375 -4.5625,-2.875 0.8125,-1.375 2.875,-1.1875 3.125,0.1875 2.125,-0.9375 1.1875,-2.25 -2.625,-2.6875 3.25,-0.1875 2.125,-0.125 -0.125,-1.9375 1.0625,-0.5 2.4375,0.6875 0.9375,-0.5 -1.1875,-2 -0.5625,-2.3125 -0.5625,-2.6875 -0.25,-3.3125 0.4375,-3.0625 1.875,-0.9375 1.625,2.3125 0.0625,1.6875 2.1875,-0.1875 1.875,2.25 1.4375,0.5 -0.125,-1.5625 -2.0625,-2.125 -0.75,-3.875 0.5625,-0.6875 1.625,0.9375 1.375,3.3125 3.625,1.375 2.0625,1.75 0.8125,-3.6875 0.75,-1.375 1.25,0.5 2.9375,0.9375 0.8125,-2.1875 2.1875,1 1.3125,-0.5625 0.25,-1.25 1.3125,0.0625 1.75,1.3125 5.8125,-1.25 -2.9375,-6.9375 -0.8125,-2.75 -1.75,-2.75 0,-1.1875 -0.625,-0.6875 0,-1.5625 -1.4375,-0.0625 -2.625,-0.8125 -2.5,-5.6875 0.625,-4.125 -1.125,-1.625 0,-1.25 1.25,-0.875 0,-1.5 1.4375,-0.5625 -0.1875,-1.5 1.125,-1.4375 -0.375,-3.1875 0.25,-1.625 -0.5,-3.6875 0.1875,-1.3125 1.125,0.3125 0.125,-1.75 -0.8125,-1.625 -2,-2.3125 -0.25,-1.875 -1.125,-0.5625 -0.3125,-1.375 -1,-0.1875 -1.875,-2.0625 -0.375,-2.3125 -2.25,-3.0625 0.375,-1.5625 -0.625,-1.125 0.3125,-2.0625 2.1875,-0.875 0.625,-2.5 -0.875,-0.3125 -0.1875,-1.9375 0.4375,-1.625 -1.25,-1.25 -0.625,0.8125 -2.6875,-1.125 -0.5625,0.8125 -1.8125,-1.5 1.125,-2.375 -0.625,-1.25 0.875,0 0.3125,-2.9375 -1.625,-2.5625 L 257.125,65 l -0.5,-1.75 0.4375,-3.125 1.9375,-1.0625 -0.5,-2.625 -1.5,-0.1875 -0.5625,-1.75 -1.0625,0 -0.375,-1.25 -1.25,0 -1.4375,-3.5 -1.1875,-1.25 -1.625,0.9375 -0.75,-1.3125 0.0625,-1.8125 -0.1875,-1.625 -1.5,-1.25 -0.3125,-1.625 -1.9375,-0.9375 -0.5625,-0.0625 -1.875,-0.875 -0.0625,-1.25 -0.9375,-0.625 -0.4375,0.8125 -1.875,-1.125 -0.6875,-0.9375 -0.5625,0.5 -3.375,-1.5 -0.75,0.875 -0.8125,-1.375 -1.375,0.375 -1.8125,0 -1.75,-0.5 L 227.5625,34 227.5,32.5625 l -3,-1.6875 -2.25,0.0625 0.0625,-1.5 L 220.375,28 218.4375,27.4375 217,26.75 l -0.375,-2.9375 -1.0625,-0.5 -0.9375,0.5625 -1.25,-2.3125 -4.0625,-3.5 -1.375,0.25 -1.375,-1.625 0.8125,-1.0625 0.3125,-0.875 -1,-0.4375 -1.5,-1.8125 -3.5625,-0.5625 z M 146,136.625 l 4.375,2.125 2.0625,2.5 2.3125,2.3125 2.0625,2.3125 3,1.5 1.125,2.75 1.8125,1.75 1.6875,-0.8125 1.125,1.3125 -0.6875,1.0625 -2.75,0.5625 0.9375,2.9375 -0.8125,2.5 5,6.125 2.4375,-0.0625 1.5,0.9375 -0.3125,2 1,1.1875 2,1.5 -0.125,1.25 -4.4375,-1.4375 -1.1875,-0.75 -1.75,0.5625 -2,-5.8125 -3,-4.3125 -0.9375,2.625 -1.5625,0.0625 -0.4375,-2.875 0.6875,-1.6875 -0.1875,-1.625 -2.125,-2.9375 2.25,-1.125 1.625,-0.6875 -2.1875,-2.125 -2.375,-2.625 -3,-1.3125 -0.25,-2.125 -2.5,-3.3125 -4.875,-2.9375 0.5,-1.3125 z M 84.5625,280.3125 88,281.375 l 2.8125,1.1875 2.125,1.875 1.4375,-0.4375 2.3125,1.4375 -2.5,-0.3125 -0.3125,1.25 1.375,1.1875 1.0625,0.5 -1.25,0.625 L 93.5,289.25 93.75,292 94.3125,295.3125 95,300.25 94,303.875 92.6875,303.0625 91.5,299.5 l 1.375,-0.3125 0.0625,-3.25 -1.0625,-3.625 -0.4375,-2.25 -2,-1.625 -2.5,-0.9375 -1.625,-1.5625 2.125,-0.0625 -2.875,-5.5625 z" />
  </g>
  <path class="sjukvardsregion-border" id="sjukvardsregion-border" d="m 81.75,479.0625 -2.8125,1.6875 0.4375,2.25 -0.5,2.5625 -1,2.1875 -1.4375,1.4375 -1.25,-0.875 -4.0625,-0.8125 -0.5,1.5 1.375,1.4375 0.25,1.75 1.0625,-0.75 1.75,-0.625 0.875,0.5 -0.6875,1.125 -2.25,1.875 -1.625,0.4375 -2.1875,0 -2.0625,1.25 -2.375,0.75 -2.1875,1.5 -0.6875,2.375 -0.5,2.125 -1.1875,0.8125 -1.875,-0.3125 -0.9375,-0.75 1.4375,-4.3125 0.9375,-2.9375 -1,-0.875 -1.625,-0.375 -2.6875,4.1875 -1.625,1.625 0.0625,0.875 -1.5,2.375 -2.9375,0.4375 -1.8125,2.125 0.0625,1.0625 -1.75,0.6875 0.5625,-2.75 -1.4375,-0.1875 -2.125,3.125 -1.375,-0.3125 -0.875,0.625 -2.25,-0.4375 0.125,-1.375 1.5,-2.0625 1.9375,-1.1875 1.5625,-1.875 1.125,-2 1.4375,-1.75 1.1875,-1.0625 -0.4375,-0.8125 -2.5,-0.25 -1.0625,-1.3125 -0.0625,-2.6875 1.75,-2.6875 2.0625,-3.125 0.5,-3.5 0.9375,-1.4375 2.1875,-3.75 m -8.5625,105.875 0.9375,-1.3125 2.5625,-1.875 1.875,0.0625 1.375,-0.875 0.375,-2.1875 0.9375,-1.1875 -2.25,-1.25 0.75,-2.0625 0.8125,0 1.1875,-1.4375 1.6875,0.5 0.75,-1.6875 1.4375,-0.6875 -0.0625,-1.5 1.25,-0.9375 1.25,-1.625 0.5625,-2.25 0.75,-1 1.125,0.4375 L 59.0625,559 61,558.5625 l 0.4375,-0.875 1.125,-0.25 0,-1.125 1.4375,-0.75 0.625,-1.625 3,-4.5 1.125,-0.8125 0.4375,-1.25 L 69,545.25 l 0.125,-1 1.1875,-0.5625 0.375,-1.25 L 70,540.625 70.125,539.3125 71,538 l 0.0625,-3.6875 0.25,-1.8125 -0.9375,-2.5625 0.0625,-2.0625 1.25,-1.4375 0.5,-1.6875 0.5625,-0.125 1.1875,0.6875 0.75,-0.5 1.8125,0.8125 0.1875,1.125 2.6875,-0.8125 0.125,-0.8125 1.0625,-1.3125 0.0625,-3.5 2.4375,0.3125 0.1875,-1.875 0.875,-1.875 0.75,-3.375 1.75,-2.125 1.1875,-2.625 1.375,-3.0625 1,-0.5625 1.0625,-2.75 0.1875,-1.8125 0.125,-2 1.125,-1.0625 2,-0.9375 1.25,-1.5 m 69.6875,-9.75 -0.5,-2 -1.8125,-0.875 -0.125,-1.125 -3.75,0.0625 -1.875,-2.625 0.25,-4.25 -1.25,-2.25 -0.375,-2.375 1.0625,-1.25 -0.6875,-1.6875 1.25,-0.9375 -0.25,-1.4375 -0.6875,-0.1875 1.1875,-1.5625 L 157,460.5 l -3.1875,-0.75 -0.625,1 0.8125,2.8125 -1.75,0.125 -0.9375,-3 0.6875,-1.625 -1.375,-1 -1.0625,0.5 -0.375,1.625 L 146.5,459 l -1.25,0.5625 -1.9375,0.1875 -2.3125,0.75 -2.125,-0.4375 -2.3125,0.5 -4.4375,0.3125 -3.375,0.3125 -0.6875,-2 2.75,0.0625 1.5625,-0.9375 2,0.9375 2.8125,-0.6875 0.9375,-1.25 1.5,-1.5625 -0.8125,-1.375 1.625,-0.8125 1.6875,1.1875 1.375,1.875 1.875,-0.8125 0.625,-1.0625 2,0.1875 1.625,1.625 1.625,-1 1.4375,-0.375 2.6875,1.1875 2.9375,2.5625 2.0625,0.0625 -0.125,-2.4375 -1.6875,-3.5 0.25,-0.4375 0.75,-0.375 0.125,0.8125 0.25,0.625 0.6875,0.9375 0.75,1 0.8125,0.5625 0.4375,-0.0625 0.3125,-0.5 0.3125,-0.6875 0.3125,-0.125 0.125,-0.625 -0.9375,-0.875 -0.0625,-0.8125 0.3125,-0.75 0.3125,-0.375 0.375,-0.0625 L 164,450.75 163.8125,450.5 164.5,449.8125 165.125,449.5 165,448.625 l 0.6875,0.125 0.6875,0 0.3125,0.4375 0.5625,0.125 0.1875,0.5625 0.4375,0.0625 0.25,-0.6875 0.5625,-0.3125 0.5,0.0625 0.25,0.1875 0.4375,-0.25 -0.125,-0.3125 1.875,-0.75 0.4375,-0.0625 0.4375,-0.25 0.75,-0.625 0.5,0 0.625,-0.5625 0.1875,0.125 0.5,-0.125 0.5,0 1.0625,-3.625 3.6875,-1 L 182,440 l 0.4375,-5.9375 0.9375,-0.375 -1.5,-1.875 1.875,-0.625 0.5,-2.25 0.4375,-2.3125 m -157.25,41.0625 3.0625,-1.0625 3.0625,3.1875 -0.3125,-3.4375 4,0.125 0.6875,3.3125 1.875,0.8125 1.8125,-0.375 0.875,2.5 2.625,0.625 1.625,-2.75 1.6875,0.875 1.25,1.1875 0,3.875 L 52.75,475.5 52.875,477.375 55,477 l 0.625,1.875 1.25,0.0625 0.5625,4.5625 2.5,1.5 1.125,-1 -0.625,-7.125 -1.1875,-4.75 -1.375,-3.5625 1.3125,-1.3125 0,-3.4375 0.75,1.125 0.875,1 1.5,-0.1875 -0.625,-1.375 0.75,-1 2.25,-0.3125 1.3125,1.625 1.5,3.3125 1.8125,-1.75 0.6875,-2.1875 2.125,-0.9375 1.1875,2 1.625,-1.4375 1.6875,1.4375 1.4375,0.9375 2,-0.0625 0.75,4.25 -1.625,3.1875 -1.4375,2.75 -0.0625,2.5625 0.8125,0.3125 1.0625,-1.8125 1.75,-1.3125 1.25,1.0625 -0.8125,2.0625 2.25,0 1.3125,2 0.875,4.9375 1.4375,1.125 -1.0625,1.625 1.75,1.6875 1.375,0.125 0.1875,3.375 1.625,0 0.1875,1.3125 1.25,-0.375 0.6875,-1.875 1.4375,0 0.875,2.0625 2.3125,-1.4375 1.4375,-3.25 1.5625,-1 0,2.4375 0.8125,-0.25 0.125,1.625 -1,2.0625 2.1875,-1.25 0.5,-1.75 0.9375,-1.8125 1.125,-1.4375 1.3125,-0.0625 1.4375,-1.75 2.1875,1.3125 1.1875,-0.5625 0.75,1.3125 0.5,-2.125 2,0.0625 1.0625,-1.625 L 115.5,484 l 2.4375,-2.6875 2.625,1.0625 1.25,-2.6875 1.1875,0.625 0.4375,1.1875 2.3125,1.5625 2.3125,1.0625 1.0625,2.0625 1.6875,1.875 1.4375,0.375 0.625,0.9375 2.8125,5.5 4.25,0.125 3.5,1.1875 1.5,2.1875 m 13.5,-163.4375 -3.3125,-0.875 -1.9375,0.3125 -2.0625,-0.9375 -1.0625,0.625 -2.6875,-0.75 -1.375,0.25 -2.4375,-1.4375 -6.125,-1.5 -5.9375,-0.1875 -3.875,0.1875 -0.8125,-0.9375 -8.6875,-4.0625 -3.0625,0.25 -3.375,2.9375 0.25,3.0625 1.3125,0.9375 0.3125,3.5 -7.1875,5.5 0.5625,2.125 -0.1875,2.5 0,2.1875 -1.375,-1.125 -3.1875,-0.25 -0.5625,2.375 -1.5625,-2.875 -1.5625,0.875 -0.8125,-1.5 -3.6875,5.5625 -0.6875,7.4375 -1.9375,2 -1.25,-1.25 -3.4375,-1 -4.8125,-0.25 -2,-0.8125 -6.125,-1.125 -1.0625,0.75 -1.25,-1.75 0.25,-2.0625 -2,-4.25 -4.3125,-5.25 3.625,-3.3125 -1,-0.375 -0.5,-2.125 -3.0625,1.5 -2.5,-2.8125 -2,-2.875 -3,-4.0625 -3.875,0.1875 -6.6875,-2.1875 m 91,279.875 0.5,0.8125 -0.1875,2.375 1.6875,-1.5 0.8125,-2.625 1.625,-3.9375 -0.375,-1.5625 1.0625,-2.5625 0.75,-2.875 0.1875,-2.125 1.3125,-1.375 -0.1875,-1 L 145,589 l 1.875,-6.875 1.1875,-0.3125 0.6875,-1.6875 -0.0625,-1.4375 0.5625,-1.0625 0.0625,-3.1875 1.375,-1.25 -0.625,-1.5 1,0.0625 0.875,-3.1875 1.25,-2.75 0.625,-0.625 0,-2.8125 -0.375,-1.0625 0.625,-1.5625 1.25,-0.6875 -0.4375,-1.8125 m -101.3125,11.1875 0.9375,3 2.3125,-2 0.25,-1.4375 1.0625,0.5625 2.25,-0.9375 2.5625,0.5 0.625,-0.625 0.25,1.5 0.75,-0.1875 2.0625,1.3125 -0.5,1.75 0.6875,1.5 1.625,0.625 0.5625,-3.0625 1.125,-0.6875 1.8125,0.25 1,2.625 1.5,-0.75 0.3125,-1.125 2.25,-0.5625 1.375,0.4375 0.9375,1.0625 0.5625,-0.4375 1.4375,2.4375 0.1875,1.9375 1.0625,2.5 1.125,0.625 1.25,-0.6875 1.375,-3.3125 -1.5,-1.9375 -0.25,-1.625 0.5,-0.75 0.125,-4.3125 1.1875,0 2.5,-0.0625 1.4375,-0.3125 0.25,-1.5 1,0.1875 L 92,564.3125 93.5625,564.125 95,563.25 l 1.5,0 1.625,0.875 1,1.125 0.375,2.3125 1.4375,-0.125 0.5,-1.125 1.0625,-0.25 1,-0.6875 0.5,-0.75 1.75,0.125 -1.0625,-1.625 1.5,0 1.125,0.875 4,-0.625 3.875,1.5625 0.625,0.6875 -0.5,1.5 2.3125,1 0.875,2.0625 1.875,0.75 1.5625,2.1875 1.0625,2.1875 -0.8125,2.5625 -2.9375,0.25 -1.0625,0.25 -2.4375,-0.875 -1.125,0.5 0,0.9375 1,2.875 -0.25,1.4375 -2.625,0.3125 -2.0625,0.875 1.5625,2.9375 -0.3125,2 0.3125,1.1875 -1.5,1.9375 0.25,2.125 -0.75,0.6875 -0.1875,2.625 1.5625,-0.5625 2.1875,0.8125 0.25,-1.5 1.875,0.6875 0.625,1.4375 1.25,-0.0625 0.4375,1.25 0.5625,1.125 1.375,0.4375 1.625,3.125 1.4375,1 2.4375,-0.125 1.125,0.8125 1.625,-0.8125 m -27.25,-110.3125 -0.3125,3.0625 -1.6875,2 1.6875,1.375 1.4375,0.3125 0.8125,0.75 -1.5,0.9375 -0.9375,2.3125 -1.5,0.6875 -1.0625,-1.125 L 97.0625,506 97,507.5 l -2.8125,2.3125 -0.375,1.5625 -0.5,1.5625 0.3125,1 -0.625,1 -0.625,3.125 -1.375,4.5625 -1.75,2.8125 -0.5,1.9375 -2.4375,1.5625 -1.75,3.0625 -0.5,2.1875 -0.25,2.6875 -1.25,0.125 -0.75,0.5625 -0.6875,-0.5 0.25,-1.875 L 81,533.25 80.3125,532.625 80.5,529.25 l 1.0625,-1.8125 0.9375,-3.125 0.5625,-3.6875 m 108.1875,10.6875 -0.4375,1.9375 -1.1875,0.375 -1.375,0.5 -1.3125,1.125 -0.75,2.9375 -1.75,3.5 -1.625,2.375 -1.375,0.625 -1.9375,2.4375 -0.375,1.8125 0.5625,2.25 0.5625,2.4375 0.9375,1.1875 -0.3125,3"/>
</svg>
